REM DIRINDEX 1\2\5,1\2\6,1\3\7,1\3\8,1\4\9,1\4\10
REM DIRNAME folder01,folder02,folder03,folder04,folder05,folder06,folder07,folder08,folder09,folder10
TITLE ""
FILE "Track21.mp3" MP3
  TRACK 01 AUDIO
    TITLE "8:cjc079_0568"
    INDEX 01 00:00:00
  TRACK 02 AUDIO
    TITLE "8:cjc079_0569"
    INDEX 01 00:02:30
  TRACK 03 AUDIO
    TITLE "7:cjc079_0570"
    INDEX 01 00:04:42
  TRACK 04 AUDIO
    TITLE "0:"
    INDEX 01 00:05:59
  TRACK 05 AUDIO
    TITLE "7:cjc079_0571"
    INDEX 01 00:06:28
  TRACK 06 AUDIO
    TITLE "0:"
    INDEX 01 00:07:43
  TRACK 07 AUDIO
    TITLE "8:cjc079_0572"
    INDEX 01 00:09:18
  TRACK 08 AUDIO
    TITLE "7:cjc079_0573"
    INDEX 01 00:10:65
  TRACK 09 AUDIO
    TITLE "0:"
    INDEX 01 00:12:14
  TRACK 10 AUDIO
    TITLE "7:cjc079_0574"
    INDEX 01 00:12:69
  TRACK 11 AUDIO
    TITLE "0:"
    INDEX 01 00:14:21
  TRACK 12 AUDIO
    TITLE "8:cjc079_0575"
    INDEX 01 00:15:70
  TRACK 13 AUDIO
    TITLE "7:cjc079_0576"
    INDEX 01 00:17:29
  TRACK 14 AUDIO
    TITLE "0:"
    INDEX 01 00:18:54
  TRACK 15 AUDIO
    TITLE "7:cjc079_0577"
    INDEX 01 00:19:28
  TRACK 16 AUDIO
    TITLE "0:"
    INDEX 01 00:20:55
  TRACK 17 AUDIO
    TITLE "8:cjc079_0578"
    INDEX 01 00:22:27
  TRACK 18 AUDIO
    TITLE "7:cjc079_0579"
    INDEX 01 00:24:06
  TRACK 19 AUDIO
    TITLE "0:"
    INDEX 01 00:25:31
  TRACK 20 AUDIO
    TITLE "7:cjc079_0580"
    INDEX 01 00:26:05
  TRACK 21 AUDIO
    TITLE "0:"
    INDEX 01 00:27:30
  TRACK 22 AUDIO
    TITLE "8:cjc079_0581"
    INDEX 01 00:29:05
  TRACK 23 AUDIO
    TITLE "7:cjc079_0582"
    INDEX 01 00:30:48
  TRACK 24 AUDIO
    TITLE "0:"
    INDEX 01 00:31:61
  TRACK 25 AUDIO
    TITLE "7:cjc079_0583"
    INDEX 01 00:32:39
  TRACK 26 AUDIO
    TITLE "0:"
    INDEX 01 00:33:52
  TRACK 27 AUDIO
    TITLE "8:cjc079_0584"
    INDEX 01 00:35:27
  TRACK 28 AUDIO
    TITLE "7:cjc079_0585"
    INDEX 01 00:37:34
  TRACK 29 AUDIO
    TITLE "0:"
    INDEX 01 00:38:61
  TRACK 30 AUDIO
    TITLE "7:cjc079_0586"
    INDEX 01 00:39:31
  TRACK 31 AUDIO
    TITLE "0:"
    INDEX 01 00:40:58
  TRACK 32 AUDIO
    TITLE "8:cjc079_0587"
    INDEX 01 00:42:31
  TRACK 33 AUDIO
    TITLE "7:cjc079_0588"
    INDEX 01 00:43:70
  TRACK 34 AUDIO
    TITLE "0:"
    INDEX 01 00:45:26
  TRACK 35 AUDIO
    TITLE "7:cjc079_0589"
    INDEX 01 00:45:73
  TRACK 36 AUDIO
    TITLE "0:"
    INDEX 01 00:47:30
  TRACK 37 AUDIO
    TITLE "8:cjc079_0590"
    INDEX 01 00:49:04
  TRACK 38 AUDIO
    TITLE "7:cjc079_0591"
    INDEX 01 00:50:37
  TRACK 39 AUDIO
    TITLE "0:"
    INDEX 01 00:51:42
  TRACK 40 AUDIO
    TITLE "7:cjc079_0592"
    INDEX 01 00:52:14
  TRACK 41 AUDIO
    TITLE "0:"
    INDEX 01 00:53:19
  TRACK 42 AUDIO
    TITLE "8:cjc079_0593"
    INDEX 01 00:54:64
  TRACK 43 AUDIO
    TITLE "7:cjc079_0594"
    INDEX 01 00:56:41
  TRACK 44 AUDIO
    TITLE "0:"
    INDEX 01 00:57:68
  TRACK 45 AUDIO
    TITLE "7:cjc079_0595"
    INDEX 01 00:58:38
  TRACK 46 AUDIO
    TITLE "0:"
    INDEX 01 00:59:65
  TRACK 47 AUDIO
    TITLE "8:cjc079_0596"
    INDEX 01 01:01:34
  TRACK 48 AUDIO
    TITLE "7:cjc079_0597"
    INDEX 01 01:03:04
  TRACK 49 AUDIO
    TITLE "0:"
    INDEX 01 01:04:09
  TRACK 50 AUDIO
    TITLE "7:cjc079_0598"
    INDEX 01 01:04:60
  TRACK 51 AUDIO
    TITLE "0:"
    INDEX 01 01:05:64
  TRACK 52 AUDIO
    TITLE "8:cjc079_0599"
    INDEX 01 01:07:39
  TRACK 53 AUDIO
    TITLE "7:cjc079_0600"
    INDEX 01 01:09:54
  TRACK 54 AUDIO
    TITLE "0:"
    INDEX 01 01:11:05
  TRACK 55 AUDIO
    TITLE "7:cjc079_0601"
    INDEX 01 01:11:52
  TRACK 56 AUDIO
    TITLE "0:"
    INDEX 01 01:13:04
  TRACK 57 AUDIO
    TITLE "8:cjc079_0602"
    INDEX 01 01:14:55
  TRACK 58 AUDIO
    TITLE "7:cjc079_0603"
    INDEX 01 01:16:18
  TRACK 59 AUDIO
    TITLE "0:"
    INDEX 01 01:17:37
  TRACK 60 AUDIO
    TITLE "7:cjc079_0604"
    INDEX 01 01:18:07
  TRACK 61 AUDIO
    TITLE "0:"
    INDEX 01 01:19:27
  TRACK 62 AUDIO
    TITLE "8:cjc079_0605"
    INDEX 01 01:21:00
  TRACK 63 AUDIO
    TITLE "7:cjc079_0606"
    INDEX 01 01:22:35
  TRACK 64 AUDIO
    TITLE "0:"
    INDEX 01 01:23:67
  TRACK 65 AUDIO
    TITLE "7:cjc079_0607"
    INDEX 01 01:24:39
  TRACK 66 AUDIO
    TITLE "0:"
    INDEX 01 01:25:70
  TRACK 67 AUDIO
    TITLE "8:cjc079_0608"
    INDEX 01 01:27:42
  TRACK 68 AUDIO
    TITLE "7:cjc079_0609"
    INDEX 01 01:29:19
  TRACK 69 AUDIO
    TITLE "0:"
    INDEX 01 01:30:28
  TRACK 70 AUDIO
    TITLE "7:cjc079_0610"
    INDEX 01 01:31:00
  TRACK 71 AUDIO
    TITLE "0:"
    INDEX 01 01:32:08
  TRACK 72 AUDIO
    TITLE "8:cjc079_0611"
    INDEX 01 01:33:56
  TRACK 73 AUDIO
    TITLE "7:cjc079_0612"
    INDEX 01 01:35:22
  TRACK 74 AUDIO
    TITLE "0:"
    INDEX 01 01:36:47
  TRACK 75 AUDIO
    TITLE "7:cjc079_0613"
    INDEX 01 01:37:19
  TRACK 76 AUDIO
    TITLE "0:"
    INDEX 01 01:38:45
  TRACK 77 AUDIO
    TITLE "8:cjc079_0614"
    INDEX 01 01:40:15
  TRACK 78 AUDIO
    TITLE "7:cjc079_0615"
    INDEX 01 01:42:22
  TRACK 79 AUDIO
    TITLE "0:"
    INDEX 01 01:43:54
  TRACK 80 AUDIO
    TITLE "7:cjc079_0616"
    INDEX 01 01:44:24
  TRACK 81 AUDIO
    TITLE "0:"
    INDEX 01 01:45:55
  TRACK 82 AUDIO
    TITLE "8:cjc079_0617"
    INDEX 01 01:47:31
  TRACK 83 AUDIO
    TITLE "7:cjc079_0618"
    INDEX 01 01:48:71
  TRACK 84 AUDIO
    TITLE "0:"
    INDEX 01 01:50:11
  TRACK 85 AUDIO
    TITLE "7:cjc079_0619"
    INDEX 01 01:50:56
  TRACK 86 AUDIO
    TITLE "0:"
    INDEX 01 01:52:00
  TRACK 87 AUDIO
    TITLE "8:cjc079_0620"
    INDEX 01 01:53:47
  TRACK 88 AUDIO
    TITLE "7:cjc079_0621"
    INDEX 01 01:55:05
  TRACK 89 AUDIO
    TITLE "0:"
    INDEX 01 01:56:14
  TRACK 90 AUDIO
    TITLE "7:cjc079_0622"
    INDEX 01 01:56:57
  TRACK 91 AUDIO
    TITLE "0:"
    INDEX 01 01:57:66
  TRACK 92 AUDIO
    TITLE "8:cjc079_0623"
    INDEX 01 01:59:36
  TRACK 93 AUDIO
    TITLE "7:cjc079_0624"
    INDEX 01 02:01:13
  TRACK 94 AUDIO
    TITLE "0:"
    INDEX 01 02:02:18
  TRACK 95 AUDIO
    TITLE "7:cjc079_0625"
    INDEX 01 02:02:64
  TRACK 96 AUDIO
    TITLE "0:"
    INDEX 01 02:03:69
  TRACK 97 AUDIO
    TITLE "8:cjc079_0626"
    INDEX 01 02:05:40
  TRACK 98 AUDIO
    TITLE "7:cjc079_0627"
    INDEX 01 02:07:04
  TRACK 99 AUDIO
    TITLE "0:"
    INDEX 01 02:08:21
  TRACK 100 AUDIO
    TITLE "7:cjc079_0628"
    INDEX 01 02:08:68
  TRACK 101 AUDIO
    TITLE "0:"
    INDEX 01 02:10:10
